# xmcd CD database file
#
# Track frame offsets:
#	150
#	14485
#	29556
#	39416
#	49838
#	66571
#	85892
#	104470
#	122455
#	138064
#	155831
#	168109
#	182562
#	199322
#	214380
#	234864
#
# Disc length: 3348 seconds
#
# Revision: 0
# Processed by: cddbd v1.4PL0 Copyright (c) Steve Scherf et al.
# Submitted via: CDex 1.51
#
DISCID=de0d1210
DTITLE=John Denver - No Title
DYEAR=2003
DGENRE=Country
TTITLE0=Take Me Home, Country Roads
TTITLE1=Thank God I'm A Country Boy
TTITLE2=Grandma's Feather Bed
TTITLE3=Eagle And The Hawk
TTITLE4=Children Of The Universe
TTITLE5=Potter's Wheel
TTITLE6=Tenderly Calling
TTITLE7=Windsong
TTITLE8=Rocky Mountain Suite (Cold Nights In Canada)
TTITLE9=Bread And Roses
TTITLE10=Alaska And Me
TTITLE11=Home Grown Tomatoes
TTITLE12=Never A Doubt
TTITLE13=For You
TTITLE14=All This Joy
TTITLE15=Falling Leaves (The Refugees)
EXTD=YEAR: 2003
EXTT0=
EXTT1=
EXTT2=
EXTT3=
EXTT4=
EXTT5=
EXTT6=
EXTT7=
EXTT8=
EXTT9=
EXTT10=
EXTT11=
EXTT12=
EXTT13=
EXTT14=
EXTT15=
PLAYORDER=
